<mxfile host="app.diagrams.net" modified="2020-11-07T08:57:27.368Z" agent="5.0 (Windows NT 10.0; Win64; x64) AppleWebKit/537.36 (KHTML, like Gecko) Chrome/86.0.4240.183 Safari/537.36 Edg/86.0.622.63" etag="aN3iLGZlcITADVZMM2R3" version="13.9.2" type="github" pages="4">
  <diagram name="BPM_TraCuuLop" id="2a216829-ef6e-dabb-86c1-c78162f3ba2b">
    <mxGraphModel dx="1278" dy="580" grid="1" gridSize="10" guides="1" tooltips="1" connect="1" arrows="1" fold="1" page="1" pageScale="1" pageWidth="850" pageHeight="1100" background="#ffffff" math="0" shadow="0">
      <root>
        <mxCell id="0" />
        <mxCell id="1" parent="0" />
        <mxCell id="nIRj61gzb4_QtgSKYcMk-6" value="Tra cứu lớp" style="swimlane;html=1;childLayout=stackLayout;resizeParent=1;resizeParentMax=0;startSize=20;" vertex="1" parent="1">
          <mxGeometry x="20" y="40" width="940" height="540" as="geometry" />
        </mxCell>
        <mxCell id="nIRj61gzb4_QtgSKYcMk-9" value="User" style="swimlane;html=1;startSize=20;" vertex="1" parent="nIRj61gzb4_QtgSKYcMk-6">
          <mxGeometry y="20" width="470" height="520" as="geometry" />
        </mxCell>
        <mxCell id="nIRj61gzb4_QtgSKYcMk-20" value="" style="ellipse;html=1;shape=endState;fillColor=#000000;strokeColor=#000000;" vertex="1" parent="nIRj61gzb4_QtgSKYcMk-9">
          <mxGeometry x="120" y="410" width="20" height="20" as="geometry" />
        </mxCell>
        <mxCell id="nIRj61gzb4_QtgSKYcMk-29" style="edgeStyle=orthogonalEdgeStyle;rounded=0;orthogonalLoop=1;jettySize=auto;html=1;exitX=0.5;exitY=1;exitDx=0;exitDy=0;entryX=0;entryY=0.5;entryDx=0;entryDy=0;" edge="1" parent="nIRj61gzb4_QtgSKYcMk-9" source="nIRj61gzb4_QtgSKYcMk-19" target="nIRj61gzb4_QtgSKYcMk-18">
          <mxGeometry relative="1" as="geometry" />
        </mxCell>
        <mxCell id="nIRj61gzb4_QtgSKYcMk-19" value="" style="ellipse;fillColor=#000000;strokeColor=none;" vertex="1" parent="nIRj61gzb4_QtgSKYcMk-9">
          <mxGeometry x="120" y="40" width="20" height="20" as="geometry" />
        </mxCell>
        <mxCell id="nIRj61gzb4_QtgSKYcMk-18" value="Nhập thông tin lớp&lt;br&gt;cần tìm kiếm" style="html=1;align=center;verticalAlign=top;rounded=1;absoluteArcSize=1;arcSize=10;dashed=0;" vertex="1" parent="nIRj61gzb4_QtgSKYcMk-9">
          <mxGeometry x="290" y="60" width="140" height="40" as="geometry" />
        </mxCell>
        <mxCell id="nIRj61gzb4_QtgSKYcMk-35" value="Yêu cầu tìm kiếm" style="html=1;align=center;verticalAlign=top;rounded=1;absoluteArcSize=1;arcSize=10;dashed=0;" vertex="1" parent="nIRj61gzb4_QtgSKYcMk-9">
          <mxGeometry x="290" y="160" width="140" height="40" as="geometry" />
        </mxCell>
        <mxCell id="nIRj61gzb4_QtgSKYcMk-36" style="edgeStyle=orthogonalEdgeStyle;rounded=0;orthogonalLoop=1;jettySize=auto;html=1;exitX=0.5;exitY=1;exitDx=0;exitDy=0;" edge="1" parent="nIRj61gzb4_QtgSKYcMk-9" source="nIRj61gzb4_QtgSKYcMk-18" target="nIRj61gzb4_QtgSKYcMk-35">
          <mxGeometry relative="1" as="geometry" />
        </mxCell>
        <mxCell id="nIRj61gzb4_QtgSKYcMk-53" style="edgeStyle=orthogonalEdgeStyle;rounded=0;orthogonalLoop=1;jettySize=auto;html=1;exitX=0;exitY=0.5;exitDx=0;exitDy=0;entryX=0.5;entryY=0;entryDx=0;entryDy=0;" edge="1" parent="nIRj61gzb4_QtgSKYcMk-9" source="nIRj61gzb4_QtgSKYcMk-46" target="nIRj61gzb4_QtgSKYcMk-20">
          <mxGeometry relative="1" as="geometry" />
        </mxCell>
        <mxCell id="nIRj61gzb4_QtgSKYcMk-46" value="Hiển thị danh sách lớp &lt;br&gt;phù hợp ra giao diện" style="html=1;align=center;verticalAlign=top;rounded=1;absoluteArcSize=1;arcSize=10;dashed=0;" vertex="1" parent="nIRj61gzb4_QtgSKYcMk-9">
          <mxGeometry x="280" y="330" width="140" height="40" as="geometry" />
        </mxCell>
        <mxCell id="nIRj61gzb4_QtgSKYcMk-54" style="edgeStyle=orthogonalEdgeStyle;rounded=0;orthogonalLoop=1;jettySize=auto;html=1;exitX=0;exitY=0.5;exitDx=0;exitDy=0;entryX=1;entryY=0;entryDx=0;entryDy=0;" edge="1" parent="nIRj61gzb4_QtgSKYcMk-9" source="nIRj61gzb4_QtgSKYcMk-52" target="nIRj61gzb4_QtgSKYcMk-20">
          <mxGeometry relative="1" as="geometry" />
        </mxCell>
        <mxCell id="nIRj61gzb4_QtgSKYcMk-52" value="Hiển thị lỗi&quot;không tìm &lt;br&gt;thấy lớp theo yêu cầu&quot;." style="html=1;align=center;verticalAlign=top;rounded=1;absoluteArcSize=1;arcSize=10;dashed=0;" vertex="1" parent="nIRj61gzb4_QtgSKYcMk-9">
          <mxGeometry x="280" y="400" width="140" height="40" as="geometry" />
        </mxCell>
        <mxCell id="nIRj61gzb4_QtgSKYcMk-38" style="edgeStyle=orthogonalEdgeStyle;rounded=0;orthogonalLoop=1;jettySize=auto;html=1;exitX=1;exitY=0.5;exitDx=0;exitDy=0;entryX=0;entryY=1;entryDx=0;entryDy=0;" edge="1" parent="nIRj61gzb4_QtgSKYcMk-6" source="nIRj61gzb4_QtgSKYcMk-35" target="nIRj61gzb4_QtgSKYcMk-37">
          <mxGeometry relative="1" as="geometry" />
        </mxCell>
        <mxCell id="nIRj61gzb4_QtgSKYcMk-31" value="Server" style="swimlane;html=1;startSize=20;" vertex="1" parent="nIRj61gzb4_QtgSKYcMk-6">
          <mxGeometry x="470" y="20" width="470" height="520" as="geometry" />
        </mxCell>
        <mxCell id="nIRj61gzb4_QtgSKYcMk-41" style="edgeStyle=orthogonalEdgeStyle;rounded=0;orthogonalLoop=1;jettySize=auto;html=1;exitX=0.5;exitY=1;exitDx=0;exitDy=0;entryX=0.5;entryY=0;entryDx=0;entryDy=0;" edge="1" parent="nIRj61gzb4_QtgSKYcMk-31" source="nIRj61gzb4_QtgSKYcMk-37" target="nIRj61gzb4_QtgSKYcMk-40">
          <mxGeometry relative="1" as="geometry" />
        </mxCell>
        <mxCell id="nIRj61gzb4_QtgSKYcMk-37" value="Lấy thông tin theo từ khóa&lt;br&gt;tìm kiếm" style="html=1;align=center;verticalAlign=top;rounded=1;absoluteArcSize=1;arcSize=10;dashed=0;" vertex="1" parent="nIRj61gzb4_QtgSKYcMk-31">
          <mxGeometry x="130" y="60" width="140" height="40" as="geometry" />
        </mxCell>
        <mxCell id="nIRj61gzb4_QtgSKYcMk-48" style="edgeStyle=orthogonalEdgeStyle;rounded=0;orthogonalLoop=1;jettySize=auto;html=1;exitX=0.5;exitY=1;exitDx=0;exitDy=0;" edge="1" parent="nIRj61gzb4_QtgSKYcMk-31" source="nIRj61gzb4_QtgSKYcMk-39" target="nIRj61gzb4_QtgSKYcMk-45">
          <mxGeometry relative="1" as="geometry" />
        </mxCell>
        <mxCell id="nIRj61gzb4_QtgSKYcMk-39" value="Tồn tại thông tin lớp" style="html=1;align=center;verticalAlign=top;rounded=1;absoluteArcSize=1;arcSize=10;dashed=0;" vertex="1" parent="nIRj61gzb4_QtgSKYcMk-31">
          <mxGeometry x="45" y="250" width="140" height="40" as="geometry" />
        </mxCell>
        <mxCell id="nIRj61gzb4_QtgSKYcMk-42" style="edgeStyle=orthogonalEdgeStyle;rounded=0;orthogonalLoop=1;jettySize=auto;html=1;exitX=0;exitY=1;exitDx=0;exitDy=0;entryX=0.25;entryY=0;entryDx=0;entryDy=0;" edge="1" parent="nIRj61gzb4_QtgSKYcMk-31" source="nIRj61gzb4_QtgSKYcMk-40" target="nIRj61gzb4_QtgSKYcMk-39">
          <mxGeometry relative="1" as="geometry" />
        </mxCell>
        <mxCell id="nIRj61gzb4_QtgSKYcMk-44" style="edgeStyle=orthogonalEdgeStyle;rounded=0;orthogonalLoop=1;jettySize=auto;html=1;exitX=1;exitY=0.5;exitDx=0;exitDy=0;" edge="1" parent="nIRj61gzb4_QtgSKYcMk-31" source="nIRj61gzb4_QtgSKYcMk-40" target="nIRj61gzb4_QtgSKYcMk-43">
          <mxGeometry relative="1" as="geometry">
            <Array as="points">
              <mxPoint x="310" y="165" />
            </Array>
          </mxGeometry>
        </mxCell>
        <mxCell id="PyxHhewWp_0w3ZMaMSID-1" style="edgeStyle=orthogonalEdgeStyle;rounded=0;orthogonalLoop=1;jettySize=auto;html=1;exitX=1;exitY=0;exitDx=0;exitDy=0;" edge="1" parent="nIRj61gzb4_QtgSKYcMk-31" source="nIRj61gzb4_QtgSKYcMk-40" target="1ie2zMWF0DziTqmcsvLc-1">
          <mxGeometry relative="1" as="geometry" />
        </mxCell>
        <mxCell id="nIRj61gzb4_QtgSKYcMk-40" value="" style="rhombus;" vertex="1" parent="nIRj61gzb4_QtgSKYcMk-31">
          <mxGeometry x="185" y="150" width="30" height="30" as="geometry" />
        </mxCell>
        <mxCell id="nIRj61gzb4_QtgSKYcMk-49" style="edgeStyle=orthogonalEdgeStyle;rounded=0;orthogonalLoop=1;jettySize=auto;html=1;exitX=0.5;exitY=1;exitDx=0;exitDy=0;entryX=0.5;entryY=0;entryDx=0;entryDy=0;" edge="1" parent="nIRj61gzb4_QtgSKYcMk-31" source="nIRj61gzb4_QtgSKYcMk-43" target="nIRj61gzb4_QtgSKYcMk-47">
          <mxGeometry relative="1" as="geometry" />
        </mxCell>
        <mxCell id="nIRj61gzb4_QtgSKYcMk-43" value="Không tồn tại thông tin lớp" style="html=1;align=center;verticalAlign=top;rounded=1;absoluteArcSize=1;arcSize=10;dashed=0;" vertex="1" parent="nIRj61gzb4_QtgSKYcMk-31">
          <mxGeometry x="240" y="250" width="140" height="40" as="geometry" />
        </mxCell>
        <mxCell id="nIRj61gzb4_QtgSKYcMk-45" value="Gửi danh sách lớp phù &lt;br&gt;hợp với từ khóa&amp;nbsp;" style="html=1;align=center;verticalAlign=top;rounded=1;absoluteArcSize=1;arcSize=10;dashed=0;" vertex="1" parent="nIRj61gzb4_QtgSKYcMk-31">
          <mxGeometry x="45" y="330" width="140" height="40" as="geometry" />
        </mxCell>
        <mxCell id="nIRj61gzb4_QtgSKYcMk-47" value="Trả mã lỗi không tìm thấy" style="html=1;align=center;verticalAlign=top;rounded=1;absoluteArcSize=1;arcSize=10;dashed=0;" vertex="1" parent="nIRj61gzb4_QtgSKYcMk-31">
          <mxGeometry x="240" y="330" width="140" height="40" as="geometry" />
        </mxCell>
        <mxCell id="1ie2zMWF0DziTqmcsvLc-1" value="Lọc thông tin theo từ khóa cần tìm kiếm" style="shape=note2;boundedLbl=1;whiteSpace=wrap;html=1;size=25;verticalAlign=top;align=center;" vertex="1" parent="nIRj61gzb4_QtgSKYcMk-31">
          <mxGeometry x="330" y="30" width="120" height="80" as="geometry" />
        </mxCell>
        <mxCell id="nIRj61gzb4_QtgSKYcMk-50" style="edgeStyle=orthogonalEdgeStyle;rounded=0;orthogonalLoop=1;jettySize=auto;html=1;exitX=0;exitY=0.5;exitDx=0;exitDy=0;entryX=1;entryY=0.5;entryDx=0;entryDy=0;" edge="1" parent="nIRj61gzb4_QtgSKYcMk-6" source="nIRj61gzb4_QtgSKYcMk-45" target="nIRj61gzb4_QtgSKYcMk-46">
          <mxGeometry relative="1" as="geometry" />
        </mxCell>
      </root>
    </mxGraphModel>
  </diagram>
  <diagram id="vlUvVk_gv2yX77g1Mf63" name="BPM_ThayDoiQuyDinh">
    <mxGraphModel dx="1278" dy="580" grid="1" gridSize="10" guides="1" tooltips="1" connect="1" arrows="1" fold="1" page="1" pageScale="1" pageWidth="850" pageHeight="1100" math="0" shadow="0">
      <root>
        <mxCell id="sXZnNgu0xtO0w31L0Opq-0" />
        <mxCell id="sXZnNgu0xtO0w31L0Opq-1" parent="sXZnNgu0xtO0w31L0Opq-0" />
        <mxCell id="Llg_0du9sa5Qn1bJqW0Y-0" value="Thay đổi quy định" style="swimlane;html=1;childLayout=stackLayout;resizeParent=1;resizeParentMax=0;startSize=20;" vertex="1" parent="sXZnNgu0xtO0w31L0Opq-1">
          <mxGeometry x="20" y="10" width="990" height="540" as="geometry" />
        </mxCell>
        <mxCell id="Llg_0du9sa5Qn1bJqW0Y-1" value="Admin" style="swimlane;html=1;startSize=20;" vertex="1" parent="Llg_0du9sa5Qn1bJqW0Y-0">
          <mxGeometry y="20" width="470" height="520" as="geometry" />
        </mxCell>
        <mxCell id="Llg_0du9sa5Qn1bJqW0Y-2" value="" style="ellipse;html=1;shape=endState;fillColor=#000000;strokeColor=#000000;" vertex="1" parent="Llg_0du9sa5Qn1bJqW0Y-1">
          <mxGeometry x="120" y="410" width="20" height="20" as="geometry" />
        </mxCell>
        <mxCell id="Llg_0du9sa5Qn1bJqW0Y-3" style="edgeStyle=orthogonalEdgeStyle;rounded=0;orthogonalLoop=1;jettySize=auto;html=1;exitX=0.5;exitY=1;exitDx=0;exitDy=0;entryX=0;entryY=0.5;entryDx=0;entryDy=0;" edge="1" parent="Llg_0du9sa5Qn1bJqW0Y-1" source="Llg_0du9sa5Qn1bJqW0Y-4" target="Llg_0du9sa5Qn1bJqW0Y-5">
          <mxGeometry relative="1" as="geometry" />
        </mxCell>
        <mxCell id="Llg_0du9sa5Qn1bJqW0Y-4" value="" style="ellipse;fillColor=#000000;strokeColor=none;" vertex="1" parent="Llg_0du9sa5Qn1bJqW0Y-1">
          <mxGeometry x="120" y="40" width="20" height="20" as="geometry" />
        </mxCell>
        <mxCell id="Llg_0du9sa5Qn1bJqW0Y-5" value="Cung cấp thông tin các&lt;br&gt;&amp;nbsp;quy định cần thay đổi" style="html=1;align=center;verticalAlign=top;rounded=1;absoluteArcSize=1;arcSize=10;dashed=0;" vertex="1" parent="Llg_0du9sa5Qn1bJqW0Y-1">
          <mxGeometry x="290" y="60" width="140" height="40" as="geometry" />
        </mxCell>
        <mxCell id="Llg_0du9sa5Qn1bJqW0Y-6" value="Yêu cầu cập&lt;br&gt;&amp;nbsp;nhập quy định" style="html=1;align=center;verticalAlign=top;rounded=1;absoluteArcSize=1;arcSize=10;dashed=0;" vertex="1" parent="Llg_0du9sa5Qn1bJqW0Y-1">
          <mxGeometry x="290" y="160" width="140" height="40" as="geometry" />
        </mxCell>
        <mxCell id="Llg_0du9sa5Qn1bJqW0Y-7" style="edgeStyle=orthogonalEdgeStyle;rounded=0;orthogonalLoop=1;jettySize=auto;html=1;exitX=0.5;exitY=1;exitDx=0;exitDy=0;" edge="1" parent="Llg_0du9sa5Qn1bJqW0Y-1" source="Llg_0du9sa5Qn1bJqW0Y-5" target="Llg_0du9sa5Qn1bJqW0Y-6">
          <mxGeometry relative="1" as="geometry" />
        </mxCell>
        <mxCell id="Llg_0du9sa5Qn1bJqW0Y-8" style="edgeStyle=orthogonalEdgeStyle;rounded=0;orthogonalLoop=1;jettySize=auto;html=1;exitX=0;exitY=0.5;exitDx=0;exitDy=0;entryX=1;entryY=0.5;entryDx=0;entryDy=0;" edge="1" parent="Llg_0du9sa5Qn1bJqW0Y-1" source="Llg_0du9sa5Qn1bJqW0Y-9" target="Llg_0du9sa5Qn1bJqW0Y-2">
          <mxGeometry relative="1" as="geometry" />
        </mxCell>
        <mxCell id="Llg_0du9sa5Qn1bJqW0Y-9" value="Hiển thị thông báo&amp;nbsp;&lt;br&gt;cập nhật thành công." style="html=1;align=center;verticalAlign=top;rounded=1;absoluteArcSize=1;arcSize=10;dashed=0;" vertex="1" parent="Llg_0du9sa5Qn1bJqW0Y-1">
          <mxGeometry x="270" y="400" width="140" height="40" as="geometry" />
        </mxCell>
        <mxCell id="Llg_0du9sa5Qn1bJqW0Y-10" style="edgeStyle=orthogonalEdgeStyle;rounded=0;orthogonalLoop=1;jettySize=auto;html=1;exitX=0;exitY=0.5;exitDx=0;exitDy=0;entryX=0.5;entryY=1;entryDx=0;entryDy=0;" edge="1" parent="Llg_0du9sa5Qn1bJqW0Y-1" source="Llg_0du9sa5Qn1bJqW0Y-11" target="Llg_0du9sa5Qn1bJqW0Y-2">
          <mxGeometry relative="1" as="geometry" />
        </mxCell>
        <mxCell id="Llg_0du9sa5Qn1bJqW0Y-11" value="Hiển thị lỗi &quot;Người dùng không&lt;br&gt;&amp;nbsp;có thẩm quyền thay đổi&quot;." style="html=1;align=center;verticalAlign=top;rounded=1;absoluteArcSize=1;arcSize=10;dashed=0;" vertex="1" parent="Llg_0du9sa5Qn1bJqW0Y-1">
          <mxGeometry x="250" y="460" width="180" height="40" as="geometry" />
        </mxCell>
        <mxCell id="Llg_0du9sa5Qn1bJqW0Y-12" style="edgeStyle=orthogonalEdgeStyle;rounded=0;orthogonalLoop=1;jettySize=auto;html=1;exitX=1;exitY=0.5;exitDx=0;exitDy=0;entryX=0;entryY=1;entryDx=0;entryDy=0;" edge="1" parent="Llg_0du9sa5Qn1bJqW0Y-0" source="Llg_0du9sa5Qn1bJqW0Y-6" target="Llg_0du9sa5Qn1bJqW0Y-15">
          <mxGeometry relative="1" as="geometry" />
        </mxCell>
        <mxCell id="Llg_0du9sa5Qn1bJqW0Y-13" value="Server" style="swimlane;html=1;startSize=20;" vertex="1" parent="Llg_0du9sa5Qn1bJqW0Y-0">
          <mxGeometry x="470" y="20" width="520" height="520" as="geometry" />
        </mxCell>
        <mxCell id="Llg_0du9sa5Qn1bJqW0Y-14" style="edgeStyle=orthogonalEdgeStyle;rounded=0;orthogonalLoop=1;jettySize=auto;html=1;exitX=0.5;exitY=1;exitDx=0;exitDy=0;entryX=0.5;entryY=0;entryDx=0;entryDy=0;" edge="1" parent="Llg_0du9sa5Qn1bJqW0Y-13" source="Llg_0du9sa5Qn1bJqW0Y-15" target="Llg_0du9sa5Qn1bJqW0Y-20">
          <mxGeometry relative="1" as="geometry" />
        </mxCell>
        <mxCell id="Llg_0du9sa5Qn1bJqW0Y-15" value="Kiểm tra quyền&amp;nbsp;" style="html=1;align=center;verticalAlign=top;rounded=1;absoluteArcSize=1;arcSize=10;dashed=0;" vertex="1" parent="Llg_0du9sa5Qn1bJqW0Y-13">
          <mxGeometry x="130" y="60" width="140" height="40" as="geometry" />
        </mxCell>
        <mxCell id="Llg_0du9sa5Qn1bJqW0Y-16" style="edgeStyle=orthogonalEdgeStyle;rounded=0;orthogonalLoop=1;jettySize=auto;html=1;exitX=0.5;exitY=1;exitDx=0;exitDy=0;" edge="1" parent="Llg_0du9sa5Qn1bJqW0Y-13" source="Llg_0du9sa5Qn1bJqW0Y-17" target="Llg_0du9sa5Qn1bJqW0Y-23">
          <mxGeometry relative="1" as="geometry" />
        </mxCell>
        <mxCell id="Llg_0du9sa5Qn1bJqW0Y-17" value="Tài khoản là &lt;br&gt;người quản trị." style="html=1;align=center;verticalAlign=top;rounded=1;absoluteArcSize=1;arcSize=10;dashed=0;" vertex="1" parent="Llg_0du9sa5Qn1bJqW0Y-13">
          <mxGeometry x="45" y="250" width="140" height="40" as="geometry" />
        </mxCell>
        <mxCell id="Llg_0du9sa5Qn1bJqW0Y-18" style="edgeStyle=orthogonalEdgeStyle;rounded=0;orthogonalLoop=1;jettySize=auto;html=1;exitX=0;exitY=1;exitDx=0;exitDy=0;entryX=0.25;entryY=0;entryDx=0;entryDy=0;" edge="1" parent="Llg_0du9sa5Qn1bJqW0Y-13" source="Llg_0du9sa5Qn1bJqW0Y-20" target="Llg_0du9sa5Qn1bJqW0Y-17">
          <mxGeometry relative="1" as="geometry" />
        </mxCell>
        <mxCell id="Llg_0du9sa5Qn1bJqW0Y-19" style="edgeStyle=orthogonalEdgeStyle;rounded=0;orthogonalLoop=1;jettySize=auto;html=1;exitX=1;exitY=0.5;exitDx=0;exitDy=0;" edge="1" parent="Llg_0du9sa5Qn1bJqW0Y-13" source="Llg_0du9sa5Qn1bJqW0Y-20" target="Llg_0du9sa5Qn1bJqW0Y-22">
          <mxGeometry relative="1" as="geometry" />
        </mxCell>
        <mxCell id="hcfB8OOx-6VyP7-1iih1-0" style="edgeStyle=orthogonalEdgeStyle;rounded=0;orthogonalLoop=1;jettySize=auto;html=1;exitX=1;exitY=0;exitDx=0;exitDy=0;entryX=0;entryY=0.356;entryDx=0;entryDy=0;entryPerimeter=0;" edge="1" parent="Llg_0du9sa5Qn1bJqW0Y-13" source="Llg_0du9sa5Qn1bJqW0Y-20" target="BMGuZCrRZi59xLw3gIbR-0">
          <mxGeometry relative="1" as="geometry" />
        </mxCell>
        <mxCell id="Llg_0du9sa5Qn1bJqW0Y-20" value="" style="rhombus;" vertex="1" parent="Llg_0du9sa5Qn1bJqW0Y-13">
          <mxGeometry x="185" y="150" width="30" height="30" as="geometry" />
        </mxCell>
        <mxCell id="Llg_0du9sa5Qn1bJqW0Y-21" style="edgeStyle=orthogonalEdgeStyle;rounded=0;orthogonalLoop=1;jettySize=auto;html=1;exitX=0.5;exitY=1;exitDx=0;exitDy=0;entryX=0.5;entryY=0;entryDx=0;entryDy=0;" edge="1" parent="Llg_0du9sa5Qn1bJqW0Y-13" source="Llg_0du9sa5Qn1bJqW0Y-22" target="Llg_0du9sa5Qn1bJqW0Y-24">
          <mxGeometry relative="1" as="geometry" />
        </mxCell>
        <mxCell id="Llg_0du9sa5Qn1bJqW0Y-22" value="Tài khoản khôngl à&amp;nbsp;&lt;br&gt;người quản trị." style="html=1;align=center;verticalAlign=top;rounded=1;absoluteArcSize=1;arcSize=10;dashed=0;" vertex="1" parent="Llg_0du9sa5Qn1bJqW0Y-13">
          <mxGeometry x="240" y="250" width="140" height="40" as="geometry" />
        </mxCell>
        <mxCell id="BMGuZCrRZi59xLw3gIbR-34" style="edgeStyle=orthogonalEdgeStyle;rounded=0;orthogonalLoop=1;jettySize=auto;html=1;exitX=0.5;exitY=1;exitDx=0;exitDy=0;entryX=0.5;entryY=0;entryDx=0;entryDy=0;" edge="1" parent="Llg_0du9sa5Qn1bJqW0Y-13" source="Llg_0du9sa5Qn1bJqW0Y-23" target="BMGuZCrRZi59xLw3gIbR-33">
          <mxGeometry relative="1" as="geometry" />
        </mxCell>
        <mxCell id="Llg_0du9sa5Qn1bJqW0Y-23" value="Thực hiện cập nhập &lt;br&gt;quy định" style="html=1;align=center;verticalAlign=top;rounded=1;absoluteArcSize=1;arcSize=10;dashed=0;" vertex="1" parent="Llg_0du9sa5Qn1bJqW0Y-13">
          <mxGeometry x="45" y="320" width="140" height="40" as="geometry" />
        </mxCell>
        <mxCell id="Llg_0du9sa5Qn1bJqW0Y-24" value="Trả mã lỗi&amp;nbsp;" style="html=1;align=center;verticalAlign=top;rounded=1;absoluteArcSize=1;arcSize=10;dashed=0;" vertex="1" parent="Llg_0du9sa5Qn1bJqW0Y-13">
          <mxGeometry x="240" y="330" width="140" height="40" as="geometry" />
        </mxCell>
        <mxCell id="BMGuZCrRZi59xLw3gIbR-0" value="Chỉ có người dùng được phân quyền &quot;ADMIN&quot; mới có thể thay đổi quy định." style="shape=note2;boundedLbl=1;whiteSpace=wrap;html=1;size=25;verticalAlign=top;align=center;" vertex="1" parent="Llg_0du9sa5Qn1bJqW0Y-13">
          <mxGeometry x="380" y="25" width="120" height="110" as="geometry" />
        </mxCell>
        <mxCell id="BMGuZCrRZi59xLw3gIbR-33" value="Trả thông báo cập &lt;br&gt;nhập thành công&amp;nbsp;" style="html=1;align=center;verticalAlign=top;rounded=1;absoluteArcSize=1;arcSize=10;dashed=0;" vertex="1" parent="Llg_0du9sa5Qn1bJqW0Y-13">
          <mxGeometry x="45" y="410" width="140" height="40" as="geometry" />
        </mxCell>
        <mxCell id="BMGuZCrRZi59xLw3gIbR-3" style="edgeStyle=orthogonalEdgeStyle;rounded=0;orthogonalLoop=1;jettySize=auto;html=1;exitX=0.5;exitY=1;exitDx=0;exitDy=0;entryX=1;entryY=0.75;entryDx=0;entryDy=0;" edge="1" parent="Llg_0du9sa5Qn1bJqW0Y-0" source="Llg_0du9sa5Qn1bJqW0Y-24" target="Llg_0du9sa5Qn1bJqW0Y-11">
          <mxGeometry relative="1" as="geometry" />
        </mxCell>
        <mxCell id="BMGuZCrRZi59xLw3gIbR-36" style="edgeStyle=orthogonalEdgeStyle;rounded=0;orthogonalLoop=1;jettySize=auto;html=1;exitX=0;exitY=0.5;exitDx=0;exitDy=0;entryX=1;entryY=0.75;entryDx=0;entryDy=0;" edge="1" parent="Llg_0du9sa5Qn1bJqW0Y-0" source="BMGuZCrRZi59xLw3gIbR-33" target="Llg_0du9sa5Qn1bJqW0Y-9">
          <mxGeometry relative="1" as="geometry" />
        </mxCell>
      </root>
    </mxGraphModel>
  </diagram>
  <diagram id="r7iaH3GHBEUk9v6bGTNx" name="BPM_BaoCao">
    <mxGraphModel dx="1278" dy="580" grid="1" gridSize="10" guides="1" tooltips="1" connect="1" arrows="1" fold="1" page="1" pageScale="1" pageWidth="850" pageHeight="1100" math="0" shadow="0">
      <root>
        <mxCell id="5dE_--8nQx_g0oRCD-Pa-0" />
        <mxCell id="5dE_--8nQx_g0oRCD-Pa-1" parent="5dE_--8nQx_g0oRCD-Pa-0" />
        <mxCell id="5dE_--8nQx_g0oRCD-Pa-2" value="Báo cáo" style="swimlane;html=1;childLayout=stackLayout;resizeParent=1;resizeParentMax=0;startSize=20;" vertex="1" parent="5dE_--8nQx_g0oRCD-Pa-1">
          <mxGeometry x="20" y="10" width="990" height="540" as="geometry" />
        </mxCell>
        <mxCell id="5dE_--8nQx_g0oRCD-Pa-3" value="Admin" style="swimlane;html=1;startSize=20;" vertex="1" parent="5dE_--8nQx_g0oRCD-Pa-2">
          <mxGeometry y="20" width="470" height="520" as="geometry" />
        </mxCell>
        <mxCell id="5dE_--8nQx_g0oRCD-Pa-4" value="" style="ellipse;html=1;shape=endState;fillColor=#000000;strokeColor=#000000;" vertex="1" parent="5dE_--8nQx_g0oRCD-Pa-3">
          <mxGeometry x="120" y="410" width="20" height="20" as="geometry" />
        </mxCell>
        <mxCell id="5dE_--8nQx_g0oRCD-Pa-5" style="edgeStyle=orthogonalEdgeStyle;rounded=0;orthogonalLoop=1;jettySize=auto;html=1;exitX=0.5;exitY=1;exitDx=0;exitDy=0;entryX=0;entryY=0.5;entryDx=0;entryDy=0;" edge="1" parent="5dE_--8nQx_g0oRCD-Pa-3" source="5dE_--8nQx_g0oRCD-Pa-6" target="5dE_--8nQx_g0oRCD-Pa-7">
          <mxGeometry relative="1" as="geometry" />
        </mxCell>
        <mxCell id="5dE_--8nQx_g0oRCD-Pa-6" value="" style="ellipse;fillColor=#000000;strokeColor=none;" vertex="1" parent="5dE_--8nQx_g0oRCD-Pa-3">
          <mxGeometry x="120" y="40" width="20" height="20" as="geometry" />
        </mxCell>
        <mxCell id="5dE_--8nQx_g0oRCD-Pa-7" value="Cung cấp tháng hoặc&lt;br&gt;&amp;nbsp;năm cần xem báo cáo" style="html=1;align=center;verticalAlign=top;rounded=1;absoluteArcSize=1;arcSize=10;dashed=0;" vertex="1" parent="5dE_--8nQx_g0oRCD-Pa-3">
          <mxGeometry x="290" y="60" width="140" height="40" as="geometry" />
        </mxCell>
        <mxCell id="5dE_--8nQx_g0oRCD-Pa-8" value="Yêu cầu xuất báo cáo" style="html=1;align=center;verticalAlign=top;rounded=1;absoluteArcSize=1;arcSize=10;dashed=0;" vertex="1" parent="5dE_--8nQx_g0oRCD-Pa-3">
          <mxGeometry x="290" y="160" width="140" height="40" as="geometry" />
        </mxCell>
        <mxCell id="5dE_--8nQx_g0oRCD-Pa-9" style="edgeStyle=orthogonalEdgeStyle;rounded=0;orthogonalLoop=1;jettySize=auto;html=1;exitX=0.5;exitY=1;exitDx=0;exitDy=0;" edge="1" parent="5dE_--8nQx_g0oRCD-Pa-3" source="5dE_--8nQx_g0oRCD-Pa-7" target="5dE_--8nQx_g0oRCD-Pa-8">
          <mxGeometry relative="1" as="geometry" />
        </mxCell>
        <mxCell id="5dE_--8nQx_g0oRCD-Pa-10" style="edgeStyle=orthogonalEdgeStyle;rounded=0;orthogonalLoop=1;jettySize=auto;html=1;exitX=0;exitY=0.5;exitDx=0;exitDy=0;entryX=1;entryY=0.5;entryDx=0;entryDy=0;" edge="1" parent="5dE_--8nQx_g0oRCD-Pa-3" source="5dE_--8nQx_g0oRCD-Pa-11" target="5dE_--8nQx_g0oRCD-Pa-4">
          <mxGeometry relative="1" as="geometry" />
        </mxCell>
        <mxCell id="5dE_--8nQx_g0oRCD-Pa-11" value="Hiển thị thông số báo cáo &lt;br&gt;ra giao diện người dùng." style="html=1;align=center;verticalAlign=top;rounded=1;absoluteArcSize=1;arcSize=10;dashed=0;" vertex="1" parent="5dE_--8nQx_g0oRCD-Pa-3">
          <mxGeometry x="270" y="400" width="140" height="40" as="geometry" />
        </mxCell>
        <mxCell id="5dE_--8nQx_g0oRCD-Pa-12" style="edgeStyle=orthogonalEdgeStyle;rounded=0;orthogonalLoop=1;jettySize=auto;html=1;exitX=0;exitY=0.5;exitDx=0;exitDy=0;entryX=0.5;entryY=1;entryDx=0;entryDy=0;" edge="1" parent="5dE_--8nQx_g0oRCD-Pa-3" source="5dE_--8nQx_g0oRCD-Pa-13" target="5dE_--8nQx_g0oRCD-Pa-4">
          <mxGeometry relative="1" as="geometry" />
        </mxCell>
        <mxCell id="5dE_--8nQx_g0oRCD-Pa-13" value="Hiển thị lỗi &quot;Người dùng không&lt;br&gt;&amp;nbsp;có thẩm quyền xem báo cáo&quot;." style="html=1;align=center;verticalAlign=top;rounded=1;absoluteArcSize=1;arcSize=10;dashed=0;" vertex="1" parent="5dE_--8nQx_g0oRCD-Pa-3">
          <mxGeometry x="250" y="460" width="180" height="40" as="geometry" />
        </mxCell>
        <mxCell id="5dE_--8nQx_g0oRCD-Pa-14" style="edgeStyle=orthogonalEdgeStyle;rounded=0;orthogonalLoop=1;jettySize=auto;html=1;exitX=1;exitY=0.5;exitDx=0;exitDy=0;entryX=0;entryY=1;entryDx=0;entryDy=0;" edge="1" parent="5dE_--8nQx_g0oRCD-Pa-2" source="5dE_--8nQx_g0oRCD-Pa-8" target="5dE_--8nQx_g0oRCD-Pa-18">
          <mxGeometry relative="1" as="geometry" />
        </mxCell>
        <mxCell id="5dE_--8nQx_g0oRCD-Pa-15" value="Server" style="swimlane;html=1;startSize=20;" vertex="1" parent="5dE_--8nQx_g0oRCD-Pa-2">
          <mxGeometry x="470" y="20" width="520" height="520" as="geometry" />
        </mxCell>
        <mxCell id="5dE_--8nQx_g0oRCD-Pa-16" style="edgeStyle=orthogonalEdgeStyle;rounded=0;orthogonalLoop=1;jettySize=auto;html=1;exitX=0.5;exitY=1;exitDx=0;exitDy=0;entryX=0.5;entryY=0;entryDx=0;entryDy=0;" edge="1" parent="5dE_--8nQx_g0oRCD-Pa-15" source="5dE_--8nQx_g0oRCD-Pa-18" target="5dE_--8nQx_g0oRCD-Pa-23">
          <mxGeometry relative="1" as="geometry" />
        </mxCell>
        <mxCell id="5dE_--8nQx_g0oRCD-Pa-17" style="edgeStyle=orthogonalEdgeStyle;rounded=0;orthogonalLoop=1;jettySize=auto;html=1;exitX=1;exitY=0;exitDx=0;exitDy=0;entryX=0;entryY=0.131;entryDx=0;entryDy=0;entryPerimeter=0;" edge="1" parent="5dE_--8nQx_g0oRCD-Pa-15" source="5dE_--8nQx_g0oRCD-Pa-23" target="5dE_--8nQx_g0oRCD-Pa-29">
          <mxGeometry relative="1" as="geometry" />
        </mxCell>
        <mxCell id="5dE_--8nQx_g0oRCD-Pa-18" value="Kiểm tra quyền&amp;nbsp;" style="html=1;align=center;verticalAlign=top;rounded=1;absoluteArcSize=1;arcSize=10;dashed=0;" vertex="1" parent="5dE_--8nQx_g0oRCD-Pa-15">
          <mxGeometry x="130" y="60" width="140" height="40" as="geometry" />
        </mxCell>
        <mxCell id="5dE_--8nQx_g0oRCD-Pa-19" style="edgeStyle=orthogonalEdgeStyle;rounded=0;orthogonalLoop=1;jettySize=auto;html=1;exitX=0.5;exitY=1;exitDx=0;exitDy=0;" edge="1" parent="5dE_--8nQx_g0oRCD-Pa-15" source="5dE_--8nQx_g0oRCD-Pa-20" target="5dE_--8nQx_g0oRCD-Pa-27">
          <mxGeometry relative="1" as="geometry" />
        </mxCell>
        <mxCell id="5dE_--8nQx_g0oRCD-Pa-20" value="Tài khoản là &lt;br&gt;người quản trị." style="html=1;align=center;verticalAlign=top;rounded=1;absoluteArcSize=1;arcSize=10;dashed=0;" vertex="1" parent="5dE_--8nQx_g0oRCD-Pa-15">
          <mxGeometry x="45" y="250" width="140" height="40" as="geometry" />
        </mxCell>
        <mxCell id="5dE_--8nQx_g0oRCD-Pa-21" style="edgeStyle=orthogonalEdgeStyle;rounded=0;orthogonalLoop=1;jettySize=auto;html=1;exitX=0;exitY=1;exitDx=0;exitDy=0;entryX=0.25;entryY=0;entryDx=0;entryDy=0;" edge="1" parent="5dE_--8nQx_g0oRCD-Pa-15" source="5dE_--8nQx_g0oRCD-Pa-23" target="5dE_--8nQx_g0oRCD-Pa-20">
          <mxGeometry relative="1" as="geometry" />
        </mxCell>
        <mxCell id="5dE_--8nQx_g0oRCD-Pa-22" style="edgeStyle=orthogonalEdgeStyle;rounded=0;orthogonalLoop=1;jettySize=auto;html=1;exitX=1;exitY=0.5;exitDx=0;exitDy=0;" edge="1" parent="5dE_--8nQx_g0oRCD-Pa-15" source="5dE_--8nQx_g0oRCD-Pa-23" target="5dE_--8nQx_g0oRCD-Pa-25">
          <mxGeometry relative="1" as="geometry" />
        </mxCell>
        <mxCell id="5dE_--8nQx_g0oRCD-Pa-23" value="" style="rhombus;" vertex="1" parent="5dE_--8nQx_g0oRCD-Pa-15">
          <mxGeometry x="185" y="150" width="30" height="30" as="geometry" />
        </mxCell>
        <mxCell id="5dE_--8nQx_g0oRCD-Pa-24" style="edgeStyle=orthogonalEdgeStyle;rounded=0;orthogonalLoop=1;jettySize=auto;html=1;exitX=0.5;exitY=1;exitDx=0;exitDy=0;entryX=0.5;entryY=0;entryDx=0;entryDy=0;" edge="1" parent="5dE_--8nQx_g0oRCD-Pa-15" source="5dE_--8nQx_g0oRCD-Pa-25" target="5dE_--8nQx_g0oRCD-Pa-28">
          <mxGeometry relative="1" as="geometry" />
        </mxCell>
        <mxCell id="5dE_--8nQx_g0oRCD-Pa-25" value="Tài khoản khôngl à&amp;nbsp;&lt;br&gt;người quản trị." style="html=1;align=center;verticalAlign=top;rounded=1;absoluteArcSize=1;arcSize=10;dashed=0;" vertex="1" parent="5dE_--8nQx_g0oRCD-Pa-15">
          <mxGeometry x="240" y="250" width="140" height="40" as="geometry" />
        </mxCell>
        <mxCell id="5dE_--8nQx_g0oRCD-Pa-26" style="edgeStyle=orthogonalEdgeStyle;rounded=0;orthogonalLoop=1;jettySize=auto;html=1;exitX=0.5;exitY=1;exitDx=0;exitDy=0;entryX=0.5;entryY=0;entryDx=0;entryDy=0;" edge="1" parent="5dE_--8nQx_g0oRCD-Pa-15" source="5dE_--8nQx_g0oRCD-Pa-27" target="5dE_--8nQx_g0oRCD-Pa-30">
          <mxGeometry relative="1" as="geometry" />
        </mxCell>
        <mxCell id="5dE_--8nQx_g0oRCD-Pa-27" value="Thực hiện lọc dữ liệu&lt;br&gt;&amp;nbsp;doanh thu theo yêu cầu." style="html=1;align=center;verticalAlign=top;rounded=1;absoluteArcSize=1;arcSize=10;dashed=0;" vertex="1" parent="5dE_--8nQx_g0oRCD-Pa-15">
          <mxGeometry x="45" y="320" width="140" height="40" as="geometry" />
        </mxCell>
        <mxCell id="5dE_--8nQx_g0oRCD-Pa-28" value="Trả mã lỗi&amp;nbsp;" style="html=1;align=center;verticalAlign=top;rounded=1;absoluteArcSize=1;arcSize=10;dashed=0;" vertex="1" parent="5dE_--8nQx_g0oRCD-Pa-15">
          <mxGeometry x="240" y="330" width="140" height="40" as="geometry" />
        </mxCell>
        <mxCell id="5dE_--8nQx_g0oRCD-Pa-29" value="Chỉ có người dùng được phân quyền &quot;ADMIN&quot; mới có thể xem báo cáo doanh thu." style="shape=note2;boundedLbl=1;whiteSpace=wrap;html=1;size=25;verticalAlign=top;align=center;" vertex="1" parent="5dE_--8nQx_g0oRCD-Pa-15">
          <mxGeometry x="380" y="25" width="120" height="110" as="geometry" />
        </mxCell>
        <mxCell id="5dE_--8nQx_g0oRCD-Pa-30" value="Trả dữ liệu báo cáo" style="html=1;align=center;verticalAlign=top;rounded=1;absoluteArcSize=1;arcSize=10;dashed=0;" vertex="1" parent="5dE_--8nQx_g0oRCD-Pa-15">
          <mxGeometry x="45" y="410" width="140" height="40" as="geometry" />
        </mxCell>
        <mxCell id="5dE_--8nQx_g0oRCD-Pa-31" style="edgeStyle=orthogonalEdgeStyle;rounded=0;orthogonalLoop=1;jettySize=auto;html=1;exitX=0.5;exitY=1;exitDx=0;exitDy=0;entryX=1;entryY=0.75;entryDx=0;entryDy=0;" edge="1" parent="5dE_--8nQx_g0oRCD-Pa-2" source="5dE_--8nQx_g0oRCD-Pa-28" target="5dE_--8nQx_g0oRCD-Pa-13">
          <mxGeometry relative="1" as="geometry" />
        </mxCell>
        <mxCell id="5dE_--8nQx_g0oRCD-Pa-32" style="edgeStyle=orthogonalEdgeStyle;rounded=0;orthogonalLoop=1;jettySize=auto;html=1;exitX=0;exitY=0.5;exitDx=0;exitDy=0;entryX=1;entryY=0.75;entryDx=0;entryDy=0;" edge="1" parent="5dE_--8nQx_g0oRCD-Pa-2" source="5dE_--8nQx_g0oRCD-Pa-30" target="5dE_--8nQx_g0oRCD-Pa-11">
          <mxGeometry relative="1" as="geometry" />
        </mxCell>
      </root>
    </mxGraphModel>
  </diagram>
  <diagram id="SXe6KSDSRjVM7gDT-OWe" name="BPM_DangTinTuyen">
    <mxGraphModel dx="1278" dy="580" grid="1" gridSize="10" guides="1" tooltips="1" connect="1" arrows="1" fold="1" page="1" pageScale="1" pageWidth="850" pageHeight="1100" math="0" shadow="0">
      <root>
        <mxCell id="dX8IZGjlDOxWZ1b1RS0G-0" />
        <mxCell id="dX8IZGjlDOxWZ1b1RS0G-1" parent="dX8IZGjlDOxWZ1b1RS0G-0" />
        <mxCell id="dX8IZGjlDOxWZ1b1RS0G-30" value="Đăng tin tuyển dụng" style="swimlane;html=1;childLayout=stackLayout;resizeParent=1;resizeParentMax=0;startSize=20;" vertex="1" parent="dX8IZGjlDOxWZ1b1RS0G-1">
          <mxGeometry x="30" width="940" height="590" as="geometry" />
        </mxCell>
        <mxCell id="dX8IZGjlDOxWZ1b1RS0G-31" value="Client" style="swimlane;html=1;startSize=20;" vertex="1" parent="dX8IZGjlDOxWZ1b1RS0G-30">
          <mxGeometry y="20" width="470" height="570" as="geometry" />
        </mxCell>
        <mxCell id="dX8IZGjlDOxWZ1b1RS0G-32" value="" style="ellipse;html=1;shape=endState;fillColor=#000000;strokeColor=#000000;" vertex="1" parent="dX8IZGjlDOxWZ1b1RS0G-31">
          <mxGeometry x="120" y="410" width="20" height="20" as="geometry" />
        </mxCell>
        <mxCell id="dX8IZGjlDOxWZ1b1RS0G-33" style="edgeStyle=orthogonalEdgeStyle;rounded=0;orthogonalLoop=1;jettySize=auto;html=1;exitX=1;exitY=0.5;exitDx=0;exitDy=0;entryX=0;entryY=0.5;entryDx=0;entryDy=0;" edge="1" parent="dX8IZGjlDOxWZ1b1RS0G-31" source="dX8IZGjlDOxWZ1b1RS0G-34" target="dX8IZGjlDOxWZ1b1RS0G-35">
          <mxGeometry relative="1" as="geometry" />
        </mxCell>
        <mxCell id="dX8IZGjlDOxWZ1b1RS0G-34" value="" style="ellipse;fillColor=#000000;strokeColor=none;" vertex="1" parent="dX8IZGjlDOxWZ1b1RS0G-31">
          <mxGeometry x="50" y="40" width="20" height="20" as="geometry" />
        </mxCell>
        <mxCell id="dX8IZGjlDOxWZ1b1RS0G-35" value="Yêu cầu đăng &lt;br&gt;tin tuyển dụng" style="html=1;align=center;verticalAlign=top;rounded=1;absoluteArcSize=1;arcSize=10;dashed=0;" vertex="1" parent="dX8IZGjlDOxWZ1b1RS0G-31">
          <mxGeometry x="190" y="30" width="140" height="40" as="geometry" />
        </mxCell>
        <mxCell id="dX8IZGjlDOxWZ1b1RS0G-38" style="edgeStyle=orthogonalEdgeStyle;rounded=0;orthogonalLoop=1;jettySize=auto;html=1;exitX=0;exitY=0.5;exitDx=0;exitDy=0;entryX=0.5;entryY=0;entryDx=0;entryDy=0;" edge="1" parent="dX8IZGjlDOxWZ1b1RS0G-31" source="dX8IZGjlDOxWZ1b1RS0G-39" target="dX8IZGjlDOxWZ1b1RS0G-32">
          <mxGeometry relative="1" as="geometry" />
        </mxCell>
        <mxCell id="dX8IZGjlDOxWZ1b1RS0G-39" value="Hiển thị danh sách lớp &lt;br&gt;phù hợp ra giao diện" style="html=1;align=center;verticalAlign=top;rounded=1;absoluteArcSize=1;arcSize=10;dashed=0;" vertex="1" parent="dX8IZGjlDOxWZ1b1RS0G-31">
          <mxGeometry x="280" y="330" width="140" height="40" as="geometry" />
        </mxCell>
        <mxCell id="dX8IZGjlDOxWZ1b1RS0G-40" style="edgeStyle=orthogonalEdgeStyle;rounded=0;orthogonalLoop=1;jettySize=auto;html=1;exitX=0;exitY=0.5;exitDx=0;exitDy=0;entryX=1;entryY=0;entryDx=0;entryDy=0;" edge="1" parent="dX8IZGjlDOxWZ1b1RS0G-31" source="dX8IZGjlDOxWZ1b1RS0G-41" target="dX8IZGjlDOxWZ1b1RS0G-32">
          <mxGeometry relative="1" as="geometry" />
        </mxCell>
        <mxCell id="dX8IZGjlDOxWZ1b1RS0G-41" value="Hiển thị lỗi&quot;không tìm &lt;br&gt;thấy lớp theo yêu cầu&quot;." style="html=1;align=center;verticalAlign=top;rounded=1;absoluteArcSize=1;arcSize=10;dashed=0;" vertex="1" parent="dX8IZGjlDOxWZ1b1RS0G-31">
          <mxGeometry x="280" y="400" width="140" height="40" as="geometry" />
        </mxCell>
        <mxCell id="dX8IZGjlDOxWZ1b1RS0G-57" style="edgeStyle=orthogonalEdgeStyle;rounded=0;orthogonalLoop=1;jettySize=auto;html=1;exitX=0;exitY=0.5;exitDx=0;exitDy=0;entryX=1;entryY=0.5;entryDx=0;entryDy=0;" edge="1" parent="dX8IZGjlDOxWZ1b1RS0G-30" source="dX8IZGjlDOxWZ1b1RS0G-54" target="dX8IZGjlDOxWZ1b1RS0G-39">
          <mxGeometry relative="1" as="geometry" />
        </mxCell>
        <mxCell id="dX8IZGjlDOxWZ1b1RS0G-37" style="edgeStyle=orthogonalEdgeStyle;rounded=0;orthogonalLoop=1;jettySize=auto;html=1;exitX=1;exitY=0.5;exitDx=0;exitDy=0;" edge="1" parent="dX8IZGjlDOxWZ1b1RS0G-30" source="dX8IZGjlDOxWZ1b1RS0G-35" target="dX8IZGjlDOxWZ1b1RS0G-36">
          <mxGeometry relative="1" as="geometry" />
        </mxCell>
        <mxCell id="dX8IZGjlDOxWZ1b1RS0G-43" value="Server" style="swimlane;html=1;startSize=20;" vertex="1" parent="dX8IZGjlDOxWZ1b1RS0G-30">
          <mxGeometry x="470" y="20" width="470" height="570" as="geometry" />
        </mxCell>
        <mxCell id="dX8IZGjlDOxWZ1b1RS0G-46" style="edgeStyle=orthogonalEdgeStyle;rounded=0;orthogonalLoop=1;jettySize=auto;html=1;exitX=0.5;exitY=1;exitDx=0;exitDy=0;" edge="1" parent="dX8IZGjlDOxWZ1b1RS0G-43" source="dX8IZGjlDOxWZ1b1RS0G-47" target="dX8IZGjlDOxWZ1b1RS0G-54">
          <mxGeometry relative="1" as="geometry" />
        </mxCell>
        <mxCell id="dX8IZGjlDOxWZ1b1RS0G-47" value="Tồn tại thông tin lớp" style="html=1;align=center;verticalAlign=top;rounded=1;absoluteArcSize=1;arcSize=10;dashed=0;" vertex="1" parent="dX8IZGjlDOxWZ1b1RS0G-43">
          <mxGeometry x="45" y="250" width="140" height="40" as="geometry" />
        </mxCell>
        <mxCell id="dX8IZGjlDOxWZ1b1RS0G-48" style="edgeStyle=orthogonalEdgeStyle;rounded=0;orthogonalLoop=1;jettySize=auto;html=1;exitX=0;exitY=1;exitDx=0;exitDy=0;entryX=0.25;entryY=0;entryDx=0;entryDy=0;" edge="1" parent="dX8IZGjlDOxWZ1b1RS0G-43" source="dX8IZGjlDOxWZ1b1RS0G-51" target="dX8IZGjlDOxWZ1b1RS0G-47">
          <mxGeometry relative="1" as="geometry" />
        </mxCell>
        <mxCell id="dX8IZGjlDOxWZ1b1RS0G-49" style="edgeStyle=orthogonalEdgeStyle;rounded=0;orthogonalLoop=1;jettySize=auto;html=1;exitX=1;exitY=0.5;exitDx=0;exitDy=0;" edge="1" parent="dX8IZGjlDOxWZ1b1RS0G-43" source="dX8IZGjlDOxWZ1b1RS0G-51" target="dX8IZGjlDOxWZ1b1RS0G-53">
          <mxGeometry relative="1" as="geometry">
            <Array as="points">
              <mxPoint x="310" y="165" />
            </Array>
          </mxGeometry>
        </mxCell>
        <mxCell id="dX8IZGjlDOxWZ1b1RS0G-61" style="edgeStyle=orthogonalEdgeStyle;rounded=0;orthogonalLoop=1;jettySize=auto;html=1;exitX=1;exitY=0;exitDx=0;exitDy=0;" edge="1" parent="dX8IZGjlDOxWZ1b1RS0G-43" source="dX8IZGjlDOxWZ1b1RS0G-51" target="dX8IZGjlDOxWZ1b1RS0G-56">
          <mxGeometry relative="1" as="geometry" />
        </mxCell>
        <mxCell id="dX8IZGjlDOxWZ1b1RS0G-51" value="" style="rhombus;" vertex="1" parent="dX8IZGjlDOxWZ1b1RS0G-43">
          <mxGeometry x="185" y="150" width="30" height="30" as="geometry" />
        </mxCell>
        <mxCell id="dX8IZGjlDOxWZ1b1RS0G-52" style="edgeStyle=orthogonalEdgeStyle;rounded=0;orthogonalLoop=1;jettySize=auto;html=1;exitX=0.5;exitY=1;exitDx=0;exitDy=0;entryX=0.5;entryY=0;entryDx=0;entryDy=0;" edge="1" parent="dX8IZGjlDOxWZ1b1RS0G-43" source="dX8IZGjlDOxWZ1b1RS0G-53" target="dX8IZGjlDOxWZ1b1RS0G-55">
          <mxGeometry relative="1" as="geometry" />
        </mxCell>
        <mxCell id="dX8IZGjlDOxWZ1b1RS0G-53" value="Không tồn tại thông tin lớp" style="html=1;align=center;verticalAlign=top;rounded=1;absoluteArcSize=1;arcSize=10;dashed=0;" vertex="1" parent="dX8IZGjlDOxWZ1b1RS0G-43">
          <mxGeometry x="240" y="250" width="140" height="40" as="geometry" />
        </mxCell>
        <mxCell id="dX8IZGjlDOxWZ1b1RS0G-54" value="Gửi danh sách lớp phù &lt;br&gt;hợp với từ khóa&amp;nbsp;" style="html=1;align=center;verticalAlign=top;rounded=1;absoluteArcSize=1;arcSize=10;dashed=0;" vertex="1" parent="dX8IZGjlDOxWZ1b1RS0G-43">
          <mxGeometry x="45" y="330" width="140" height="40" as="geometry" />
        </mxCell>
        <mxCell id="dX8IZGjlDOxWZ1b1RS0G-55" value="Trả mã lỗi không tìm thấy" style="html=1;align=center;verticalAlign=top;rounded=1;absoluteArcSize=1;arcSize=10;dashed=0;" vertex="1" parent="dX8IZGjlDOxWZ1b1RS0G-43">
          <mxGeometry x="240" y="330" width="140" height="40" as="geometry" />
        </mxCell>
        <mxCell id="dX8IZGjlDOxWZ1b1RS0G-56" value="Kiểm tra người dùng đã có đăng ký chưa." style="shape=note2;boundedLbl=1;whiteSpace=wrap;html=1;size=25;verticalAlign=top;align=center;" vertex="1" parent="dX8IZGjlDOxWZ1b1RS0G-43">
          <mxGeometry x="330" y="30" width="120" height="80" as="geometry" />
        </mxCell>
        <mxCell id="dX8IZGjlDOxWZ1b1RS0G-36" value="Kiểm tra người dùng" style="html=1;align=center;verticalAlign=top;rounded=1;absoluteArcSize=1;arcSize=10;dashed=0;" vertex="1" parent="dX8IZGjlDOxWZ1b1RS0G-43">
          <mxGeometry x="15" y="30" width="170" height="40" as="geometry" />
        </mxCell>
        <mxCell id="dX8IZGjlDOxWZ1b1RS0G-42" style="edgeStyle=orthogonalEdgeStyle;rounded=0;orthogonalLoop=1;jettySize=auto;html=1;exitX=1;exitY=0.5;exitDx=0;exitDy=0;entryX=0.5;entryY=0;entryDx=0;entryDy=0;" edge="1" parent="dX8IZGjlDOxWZ1b1RS0G-43" source="dX8IZGjlDOxWZ1b1RS0G-36" target="dX8IZGjlDOxWZ1b1RS0G-51">
          <mxGeometry relative="1" as="geometry">
            <mxPoint x="165" y="160" as="targetPoint" />
            <Array as="points">
              <mxPoint x="200" y="50" />
            </Array>
          </mxGeometry>
        </mxCell>
      </root>
    </mxGraphModel>
  </diagram>
</mxfile>
